<?xml version="1.0" encoding="UTF-8" standalone="no"?>
<svg xmlns="http://www.w3.org/2000/svg" xmlns:xlink="http://www.w3.org/1999/xlink" contentStyleType="text/css" height="414px" preserveAspectRatio="none" style="width:867px;height:414px;background:#FFFFFF;" version="1.1" viewBox="0 0 867 414" width="867px" zoomAndPan="magnify"><defs/><g><rect fill="#FFFFFF" height="323.4609" style="stroke:#181818;stroke-width:1.0;" width="10" x="70" y="46.2969"/><rect fill="#FFFFFF" height="323.4609" style="stroke:#181818;stroke-width:1.0;" width="10" x="379" y="46.2969"/><rect fill="#FFFFFF" height="58.2656" style="stroke:#181818;stroke-width:1.0;" width="10" x="596" y="67.4297"/><rect fill="#FFFFFF" height="58.2656" style="stroke:#181818;stroke-width:1.0;" width="10" x="676.5" y="125.6953"/><rect fill="#FFFFFF" height="87.3984" style="stroke:#181818;stroke-width:1.0;" width="10" x="785" y="266.3594"/><rect height="133.6641" style="stroke:#000000;stroke-width:1.5;fill:none;" width="851.5" x="10" y="228.0938"/><line style="stroke:#181818;stroke-width:0.5;fill:none;stroke-dasharray:5.0,5.0;" x1="75" x2="75" y1="36.2969" y2="378.7578"/><line style="stroke:#181818;stroke-width:0.5;fill:none;stroke-dasharray:5.0,5.0;" x1="383.5" x2="383.5" y1="36.2969" y2="378.7578"/><line style="stroke:#181818;stroke-width:0.5;fill:none;stroke-dasharray:5.0,5.0;" x1="600.5" x2="600.5" y1="36.2969" y2="378.7578"/><line style="stroke:#181818;stroke-width:0.5;fill:none;stroke-dasharray:5.0,5.0;" x1="681.5" x2="681.5" y1="36.2969" y2="378.7578"/><line style="stroke:#181818;stroke-width:0.5;fill:none;stroke-dasharray:5.0,5.0;" x1="789.5" x2="789.5" y1="36.2969" y2="378.7578"/><rect fill="#E2E2F0" height="30.2969" rx="2.5" ry="2.5" style="stroke:#181818;stroke-width:0.5;" width="110" x="20" y="5"/><text fill="#000000" font-family="sans-serif" font-size="14" lengthAdjust="spacing" textLength="96" x="27" y="24.9951">User Interface</text><rect fill="#E2E2F0" height="30.2969" rx="2.5" ry="2.5" style="stroke:#181818;stroke-width:0.5;" width="110" x="20" y="377.7578"/><text fill="#000000" font-family="sans-serif" font-size="14" lengthAdjust="spacing" textLength="96" x="27" y="397.7529">User Interface</text><rect fill="#E2E2F0" height="30.2969" rx="2.5" ry="2.5" style="stroke:#181818;stroke-width:0.5;" width="75" x="346.5" y="5"/><text fill="#000000" font-family="sans-serif" font-size="14" lengthAdjust="spacing" textLength="61" x="353.5" y="24.9951">Backend</text><rect fill="#E2E2F0" height="30.2969" rx="2.5" ry="2.5" style="stroke:#181818;stroke-width:0.5;" width="75" x="346.5" y="377.7578"/><text fill="#000000" font-family="sans-serif" font-size="14" lengthAdjust="spacing" textLength="61" x="353.5" y="397.7529">Backend</text><rect fill="#E2E2F0" height="30.2969" rx="2.5" ry="2.5" style="stroke:#181818;stroke-width:0.5;" width="67" x="567.5" y="5"/><text fill="#000000" font-family="sans-serif" font-size="14" lengthAdjust="spacing" textLength="53" x="574.5" y="24.9951">Fetcher</text><rect fill="#E2E2F0" height="30.2969" rx="2.5" ry="2.5" style="stroke:#181818;stroke-width:0.5;" width="67" x="567.5" y="377.7578"/><text fill="#000000" font-family="sans-serif" font-size="14" lengthAdjust="spacing" textLength="53" x="574.5" y="397.7529">Fetcher</text><rect fill="#E2E2F0" height="30.2969" rx="2.5" ry="2.5" style="stroke:#181818;stroke-width:0.5;" width="74" x="644.5" y="5"/><text fill="#000000" font-family="sans-serif" font-size="14" lengthAdjust="spacing" textLength="60" x="651.5" y="24.9951">Decoder</text><rect fill="#E2E2F0" height="30.2969" rx="2.5" ry="2.5" style="stroke:#181818;stroke-width:0.5;" width="74" x="644.5" y="377.7578"/><text fill="#000000" font-family="sans-serif" font-size="14" lengthAdjust="spacing" textLength="60" x="651.5" y="397.7529">Decoder</text><rect fill="#E2E2F0" height="30.2969" rx="2.5" ry="2.5" style="stroke:#181818;stroke-width:0.5;" width="123" x="728.5" y="5"/><text fill="#000000" font-family="sans-serif" font-size="14" lengthAdjust="spacing" textLength="109" x="735.5" y="24.9951">Filtering System</text><rect fill="#E2E2F0" height="30.2969" rx="2.5" ry="2.5" style="stroke:#181818;stroke-width:0.5;" width="123" x="728.5" y="377.7578"/><text fill="#000000" font-family="sans-serif" font-size="14" lengthAdjust="spacing" textLength="109" x="735.5" y="397.7529">Filtering System</text><rect fill="#FFFFFF" height="323.4609" style="stroke:#181818;stroke-width:1.0;" width="10" x="70" y="46.2969"/><rect fill="#FFFFFF" height="323.4609" style="stroke:#181818;stroke-width:1.0;" width="10" x="379" y="46.2969"/><rect fill="#FFFFFF" height="58.2656" style="stroke:#181818;stroke-width:1.0;" width="10" x="596" y="67.4297"/><rect fill="#FFFFFF" height="58.2656" style="stroke:#181818;stroke-width:1.0;" width="10" x="676.5" y="125.6953"/><rect fill="#FFFFFF" height="87.3984" style="stroke:#181818;stroke-width:1.0;" width="10" x="785" y="266.3594"/><polygon fill="#181818" points="367,63.4297,377,67.4297,367,71.4297,371,67.4297" style="stroke:#181818;stroke-width:1.0;"/><line style="stroke:#181818;stroke-width:1.0;stroke-dasharray:2.0,2.0;" x1="80" x2="373" y1="67.4297" y2="67.4297"/><text fill="#000000" font-family="sans-serif" font-size="13" lengthAdjust="spacing" textLength="275" x="87" y="62.3638">request countries, types and providers lists</text><polygon fill="#181818" points="584,92.5625,594,96.5625,584,100.5625,588,96.5625" style="stroke:#181818;stroke-width:1.0;"/><line style="stroke:#181818;stroke-width:1.0;stroke-dasharray:2.0,2.0;" x1="389" x2="590" y1="96.5625" y2="96.5625"/><text fill="#000000" font-family="sans-serif" font-size="13" lengthAdjust="spacing" textLength="183" x="396" y="91.4966">call trust service json fetcher</text><polygon fill="#181818" points="400,121.6953,390,125.6953,400,129.6953,396,125.6953" style="stroke:#181818;stroke-width:1.0;"/><line style="stroke:#181818;stroke-width:1.0;" x1="394" x2="600" y1="125.6953" y2="125.6953"/><text fill="#000000" font-family="sans-serif" font-size="13" lengthAdjust="spacing" textLength="87" x="406" y="120.6294">send raw json</text><polygon fill="#181818" points="664.5,150.8281,674.5,154.8281,664.5,158.8281,668.5,154.8281" style="stroke:#181818;stroke-width:1.0;"/><line style="stroke:#181818;stroke-width:1.0;" x1="389" x2="670.5" y1="154.8281" y2="154.8281"/><text fill="#000000" font-family="sans-serif" font-size="13" lengthAdjust="spacing" textLength="120" x="396" y="149.7622">send encoded json</text><polygon fill="#181818" points="400,179.9609,390,183.9609,400,187.9609,396,183.9609" style="stroke:#181818;stroke-width:1.0;"/><line style="stroke:#181818;stroke-width:1.0;" x1="394" x2="680.5" y1="183.9609" y2="183.9609"/><text fill="#000000" font-family="sans-serif" font-size="13" lengthAdjust="spacing" textLength="200" x="406" y="178.895">send services and countries list</text><polygon fill="#181818" points="91,209.0938,81,213.0938,91,217.0938,87,213.0938" style="stroke:#181818;stroke-width:1.0;"/><line style="stroke:#181818;stroke-width:1.0;" x1="85" x2="378" y1="213.0938" y2="213.0938"/><text fill="#000000" font-family="sans-serif" font-size="13" lengthAdjust="spacing" textLength="140" x="97" y="208.0278">send selectable items</text><path d="M10,228.0938 L87,228.0938 L87,235.2266 L77,245.2266 L10,245.2266 L10,228.0938 " fill="#EEEEEE" style="stroke:#000000;stroke-width:1.5;"/><rect fill="none" height="133.6641" style="stroke:#000000;stroke-width:1.5;" width="851.5" x="10" y="228.0938"/><text fill="#000000" font-family="sans-serif" font-size="13" font-weight="bold" lengthAdjust="spacing" textLength="32" x="25" y="241.1606">loop</text><polygon fill="#181818" points="367,262.3594,377,266.3594,367,270.3594,371,266.3594" style="stroke:#181818;stroke-width:1.0;"/><line style="stroke:#181818;stroke-width:1.0;" x1="80" x2="373" y1="266.3594" y2="266.3594"/><text fill="#000000" font-family="sans-serif" font-size="13" lengthAdjust="spacing" textLength="92" x="87" y="261.2935">send selection</text><polygon fill="#181818" points="773,291.4922,783,295.4922,773,299.4922,777,295.4922" style="stroke:#181818;stroke-width:1.0;"/><line style="stroke:#181818;stroke-width:1.0;" x1="389" x2="779" y1="295.4922" y2="295.4922"/><text fill="#000000" font-family="sans-serif" font-size="13" lengthAdjust="spacing" textLength="216" x="396" y="290.4263">send service list and filtering rules</text><polygon fill="#181818" points="400,320.625,390,324.625,400,328.625,396,324.625" style="stroke:#181818;stroke-width:1.0;"/><line style="stroke:#181818;stroke-width:1.0;" x1="394" x2="784" y1="324.625" y2="324.625"/><text fill="#000000" font-family="sans-serif" font-size="13" lengthAdjust="spacing" textLength="287" x="406" y="319.5591">send filtered service list and selectable items</text><polygon fill="#181818" points="91,349.7578,81,353.7578,91,357.7578,87,353.7578" style="stroke:#181818;stroke-width:1.0;"/><line style="stroke:#181818;stroke-width:1.0;" x1="85" x2="378" y1="353.7578" y2="353.7578"/><text fill="#000000" font-family="sans-serif" font-size="13" lengthAdjust="spacing" textLength="140" x="97" y="348.6919">send selectable items</text><!--MD5=[a6b697463058238b3ff3e4515792973b]
@startuml
'Created with https://plantuml-editor.kkeisuke.dev/

activate "User Interface"
activate "Backend"
"User Interface" - -> "Backend": request countries, types and providers lists
activate "Fetcher"
"Backend" - -> "Fetcher": call trust service json fetcher
"Fetcher" -> "Backend": send raw json
deactivate "Fetcher"
activate "Decoder"
"Backend" -> "Decoder": send encoded json
"Decoder" -> "Backend": send services and countries list
deactivate "Decoder"
"Backend" -> "User Interface": send selectable items
loop
  "User Interface" -> "Backend": send selection
  activate "Filtering System"
  "Backend" -> "Filtering System": send service list and filtering rules
  "Filtering System" -> "Backend": send filtered service list and selectable items
  "Backend" -> "User Interface": send selectable items
  deactivate "Filtering System"
end
@enduml

@startuml

activate "User Interface"
activate "Backend"
"User Interface" - -> "Backend": request countries, types and providers lists
activate "Fetcher"
"Backend" - -> "Fetcher": call trust service json fetcher
"Fetcher" -> "Backend": send raw json
deactivate "Fetcher"
activate "Decoder"
"Backend" -> "Decoder": send encoded json
"Decoder" -> "Backend": send services and countries list
deactivate "Decoder"
"Backend" -> "User Interface": send selectable items
loop
  "User Interface" -> "Backend": send selection
  activate "Filtering System"
  "Backend" -> "Filtering System": send service list and filtering rules
  "Filtering System" -> "Backend": send filtered service list and selectable items
  "Backend" -> "User Interface": send selectable items
  deactivate "Filtering System"
end
@enduml

PlantUML version 1.2022.4(Sat Apr 09 13:29:17 UTC 2022)
(GPL source distribution)
Java Runtime: OpenJDK Runtime Environment
JVM: OpenJDK 64-Bit Server VM
Default Encoding: UTF-8
Language: en
Country: US
--></g></svg>